<?xml version="1.0" standalone="no"?>
<!DOCTYPE svg PUBLIC "-//W3C//DTD SVG 20010904//EN"
 "http://www.w3.org/TR/2001/REC-SVG-20010904/DTD/svg10.dtd">
<svg version="1.0" xmlns="http://www.w3.org/2000/svg"
 width="500.000000pt" height="500.000000pt" viewBox="0 0 500.000000 500.000000"
 preserveAspectRatio="xMidYMid meet">

<g transform="translate(0.000000,500.000000) scale(0.100000,-0.100000)"
fill="#000000" stroke="none">
<path d="M0 2500 l0 -2500 2500 0 2500 0 0 2500 0 2500 -2500 0 -2500 0 0
-2500z m2830 650 l0 -120 -185 0 -186 0 3 -67 3 -68 393 -3 392 -2 0 -120 0
-120 -185 0 -185 0 0 -530 0 -530 -120 0 -120 0 0 530 0 530 -90 0 -90 0 0
-340 0 -340 -120 0 -120 0 0 530 0 530 -185 0 -185 0 0 120 0 120 490 0 490 0
0 -120z"/>
</g>
</svg>
